<?xml version="1.0" standalone="no"?>
<!DOCTYPE svg PUBLIC "-//W3C//DTD SVG 20010904//EN"
 "http://www.w3.org/TR/2001/REC-SVG-20010904/DTD/svg10.dtd">
<svg version="1.0" xmlns="http://www.w3.org/2000/svg"
 width="100.000000pt" height="100.000000pt" viewBox="0 0 100.000000 100.000000"
 preserveAspectRatio="xMidYMid meet">
<metadata>
Created by potrace 1.14, written by Peter Selinger 2001-2017
</metadata>
<g transform="translate(0.000000,100.000000) scale(0.100000,-0.100000)"
fill="#000000" stroke="none">
<path d="M457 982 c-23 -26 -21 -68 4 -85 13 -10 19 -23 17 -38 -2 -19 -13
-24 -64 -35 -127 -26 -237 -110 -291 -223 -23 -50 -32 -60 -54 -60 -51 -2 -63
-22 -67 -110 -5 -96 9 -125 60 -135 28 -5 38 -15 66 -70 91 -176 300 -265 488
-208 119 36 206 109 261 217 31 61 25 55 59 61 49 8 64 36 64 123 0 87 -19
121 -68 121 -23 0 -31 9 -54 59 -53 112 -166 200 -292 225 -51 11 -62 16 -64
35 -2 15 4 28 17 38 26 18 28 64 3 86 -24 22 -65 21 -85 -1z m-54 -339 c16
-21 27 -23 97 -23 74 0 81 2 96 25 25 38 63 33 114 -16 62 -61 85 -117 85
-214 0 -67 -5 -88 -27 -131 -55 -106 -170 -170 -288 -161 -126 8 -222 83 -267
206 -18 52 -11 168 14 216 39 75 119 144 148 127 6 -3 18 -16 28 -29z"/>
<path d="M325 471 c-34 -14 -57 -47 -53 -78 4 -35 28 -37 44 -4 24 48 63 48
81 0 13 -34 28 -37 43 -10 14 27 -3 63 -40 84 -31 19 -45 20 -75 8z"/>
<path d="M597 463 c-39 -25 -55 -74 -31 -94 12 -9 18 -9 27 0 7 7 12 17 12 23
0 6 10 17 22 25 19 13 23 12 40 -5 10 -10 23 -27 30 -38 12 -18 13 -18 27 -1
44 55 -62 131 -127 90z"/>
</g>
</svg>
